<?xml version="1.0" standalone="no"?>
<!DOCTYPE svg PUBLIC "-//W3C//DTD SVG 20010904//EN"
 "http://www.w3.org/TR/2001/REC-SVG-20010904/DTD/svg10.dtd">
<svg version="1.0" xmlns="http://www.w3.org/2000/svg"
 width="700.000000pt" height="700.000000pt" viewBox="0 0 700.000000 700.000000"
 preserveAspectRatio="xMidYMid meet">
<metadata>
Created by potrace 1.11, written by Peter Selinger 2001-2013
</metadata>
<g transform="translate(0.000000,700.000000) scale(0.100000,-0.100000)"
fill="#000000" stroke="none">
<path d="M6200 6989 c-604 -50 -1191 -210 -1737 -474 -545 -263 -1026 -607
-1468 -1050 -192 -192 -325 -343 -459 -522 l-91 -123 -650 0 -650 0 -564 -564
-563 -563 328 -349 c181 -191 351 -372 378 -402 l50 -54 -105 -316 -104 -316
-63 -71 c-252 -281 -406 -672 -478 -1216 -27 -210 -30 -908 -3 -933 13 -13
331 -30 534 -29 412 1 745 57 1085 182 211 78 451 219 586 345 l72 66 327 111
327 112 394 -394 394 -394 560 560 560 560 0 626 0 626 141 129 c429 392 848
876 1146 1324 449 676 709 1321 829 2060 26 156 32 820 10 963 -9 55 -19 103
-22 106 -9 10 -651 10 -764 0z m-1434 -876 c324 -399 892 -971 1281 -1293
l103 -84 -65 -123 c-223 -425 -568 -902 -966 -1338 -117 -129 -461 -475 -621
-625 l-68 -63 0 57 c0 32 -4 56 -9 54 -4 -1 -315 -290 -689 -641 -375 -350
-685 -637 -689 -637 -5 0 -172 163 -371 363 l-363 363 38 12 c31 9 146 120
615 589 508 509 577 582 583 615 23 125 -107 227 -218 172 -44 -22 -1134
-1110 -1158 -1156 -10 -21 -19 -45 -19 -55 0 -11 -148 130 -375 357 -207 206
-374 380 -373 386 2 6 290 308 640 670 l638 659 -35 5 -35 5 101 120 c539 641
1217 1211 1854 1559 77 42 145 76 151 76 6 0 29 -21 50 -47z"/>
<path d="M4225 5046 c-146 -28 -272 -95 -379 -202 -83 -82 -136 -168 -173
-279 -24 -71 -27 -95 -28 -220 0 -121 3 -150 23 -210 80 -239 266 -418 504
-482 86 -24 270 -24 356 0 203 55 371 193 462 382 58 119 73 196 67 340 -7
176 -52 295 -163 428 -155 188 -431 289 -669 243z"/>
</g>
</svg>
