<?xml version="1.0" encoding="utf-8"?>
<!-- Generator: Adobe Illustrator 16.0.0, SVG Export Plug-In . SVG Version: 6.00 Build 0)  -->
<!DOCTYPE svg PUBLIC "-//W3C//DTD SVG 1.1//EN" "http://www.w3.org/Graphics/SVG/1.1/DTD/svg11.dtd">
<svg version="1.1" id="Layer_1" xmlns="http://www.w3.org/2000/svg" xmlns:xlink="http://www.w3.org/1999/xlink" x="0px" y="0px"
	 width="520px" height="520px" viewBox="0 0 520 520" enable-background="new 0 0 520 520" xml:space="preserve">
<g>
	<path fill="#070909" d="M1.575,245.537l83.27-83.27h97.051c0,0,113.704-176.299,335.374-161.369c0,0,41.349,164.241-156.2,339.967
		v93.033l-83.271,83.268l-58.574-58.575l-48.813,16.653c0,0-47.091,56.281-168.835,41.922c0,0-13.782-111.98,40.199-163.665
		l16.079-48.239L1.575,245.537z"/>
	<path fill="#FFFFFF" d="M486.259,34.205c0,0,28.78,126.265-157.35,294.027v95.329l-51.111,51.111l-51.684-51.686l-72.932,25.843
		l-3.446-3.446c0,0,3.447,35.604-118.299,44.793c0,0-9.189-89.586,43.644-120.596l-3.444-3.446l24.118-71.784l-49.1-49.101
		l51.971-51.972h94.756C193.381,193.277,327.76,15.827,486.259,34.205z"/>
	<path fill="#E7202A" d="M486.259,34.205c-48.461-5.618-94.655,7.083-135.456,27.408c16.523,20.215,56.77,66.908,106.41,106.571
		C498.137,86.37,486.259,34.205,486.259,34.205z"/>
	<circle fill="#A6A6A6" cx="323.167" cy="197.298" r="52.833"/>
	<polygon fill="#26BDEF" points="98.625,193.277 199.124,193.277 98.625,297.219 46.655,245.249 	"/>
	<polygon fill="#26BDEF" points="328.909,423.561 328.909,319.044 222.095,418.967 277.798,474.672 	"/>
	<polygon fill="#4A545B" points="71.636,366.134 153.182,448.829 226.114,422.986 222.095,418.967 226.114,415.206 103.296,292.389 
		98.625,297.219 95.756,294.35 	"/>
	<circle fill="#CDCCCC" cx="323.166" cy="197.298" r="36.753"/>
	<path fill="#F26423" d="M75.051,369.598c-52.8,31.026-43.614,120.578-43.614,120.578c121.746-9.189,118.299-44.793,118.299-44.793
		l3.446,3.446L75.051,369.598z"/>
	<path fill="#FFC83C" d="M90.455,385.218l43.341,43.952c0,0-11.05,23.674-69.625,26.543
		C64.17,455.713,60.461,407.178,90.455,385.218z"/>
	<path fill="#26BDEF" d="M251.957,256.448c-3.023,0-5.766,1.178-7.816,3.087l-81.267,81.267c-1.909,2.051-3.087,4.793-3.087,7.816
		c0,6.342,5.143,11.483,11.485,11.483c3.024,0,5.766-1.178,7.817-3.088l81.266-81.264c1.909-2.053,3.088-4.793,3.088-7.816
		C263.442,261.592,258.3,256.448,251.957,256.448z"/>
</g>
</svg>
